<svg width="48" height="48" viewBox="0 0 48 48" fill="none" xmlns="http://www.w3.org/2000/svg">
<g clip-path="url(#clip0_2_11)">
<path d="M0 24C0 10.7452 10.7452 0 24 0C37.2548 0 48 10.7452 48 24C48 37.2548 37.2548 48 24 48C10.7452 48 0 37.2548 0 24Z" fill="white"/>
<path d="M28.0441 36.08C27.8041 36.34 27.5441 36.47 27.2641 36.47C27.1241 36.47 26.9341 36.42 26.6941 36.32L25.7941 35.87C25.4341 35.69 25.2541 35.45 25.2541 35.15C25.2541 34.95 25.3441 34.74 25.5241 34.52C26.5041 33.38 27.2941 32.03 27.8941 30.47C28.5141 28.89 28.9541 27.01 29.2141 24.83C28.7341 24.61 28.2141 24.49 27.6541 24.47C27.0941 24.43 26.3641 24.41 25.4641 24.41H25.3741C25.0141 27.89 24.2841 30.49 23.1841 32.21C22.0841 33.93 20.4241 34.79 18.2041 34.79C17.1241 34.79 16.1641 34.52 15.3241 33.98C14.4841 33.44 13.8141 32.71 13.3141 31.79C12.8341 30.87 12.5941 29.85 12.5941 28.73C12.5941 27.11 13.3841 25.8 14.9641 24.8C16.5641 23.78 18.7841 23.11 21.6241 22.79C21.7041 21.79 21.7641 20.72 21.8041 19.58C21.8641 18.42 21.9041 17.2 21.9241 15.92H15.8041C15.1441 15.92 14.8141 15.62 14.8141 15.02C14.8141 14.42 15.1441 14.12 15.8041 14.12H24.7741C25.4341 14.12 25.7641 14.46 25.7641 15.14C25.7641 16.54 25.7441 17.86 25.7041 19.1C25.6841 20.34 25.6341 21.51 25.5541 22.61C26.3341 22.61 27.0341 22.63 27.6541 22.67C28.2941 22.71 28.8741 22.78 29.3941 22.88C29.4741 21.8 29.5241 20.63 29.5441 19.37C29.5441 18.69 29.8741 18.35 30.5341 18.35H32.3941C33.0541 18.35 33.3841 18.86 33.3841 19.88C33.3441 21.6 33.2541 23.13 33.1141 24.47C33.4541 24.71 33.8041 24.98 34.1641 25.28C34.5241 25.56 34.9041 25.89 35.3041 26.27C35.5441 26.51 35.6641 26.74 35.6641 26.96C35.6641 27.24 35.4841 27.47 35.1241 27.65L34.3141 28.04C34.1341 28.14 33.9441 28.19 33.7441 28.19C33.4441 28.19 33.1741 28.06 32.9341 27.8C32.8141 27.7 32.7141 27.6 32.6341 27.5C32.2541 29.28 31.6941 30.85 30.9541 32.21C30.2141 33.55 29.2441 34.84 28.0441 36.08ZM16.4341 28.73C16.4341 29.37 16.5341 30.02 16.7341 30.68C16.9541 31.34 17.2041 31.89 17.4841 32.33C17.7641 32.77 18.0041 32.99 18.2041 32.99C18.9041 32.99 19.5341 32.29 20.0941 30.89C20.6741 29.47 21.1241 27.39 21.4441 24.65C19.6641 24.89 18.3841 25.34 17.6041 26C16.8241 26.66 16.4341 27.57 16.4341 28.73Z" fill="#1E2939"/>
</g>
<defs>
<clipPath id="clip0_2_11">
<path d="M0 24C0 10.7452 10.7452 0 24 0C37.2548 0 48 10.7452 48 24C48 37.2548 37.2548 48 24 48C10.7452 48 0 37.2548 0 24Z" fill="white"/>
</clipPath>
</defs>
</svg>
